<svg width="34" height="37" viewBox="0 0 34 37" fill="none" xmlns="http://www.w3.org/2000/svg">
<g clip-path="url(#clip0_4256_45)">
<path d="M33.2066 9.57241L13.132 0.21149C12.878 0.0930442 12.5854 0.199534 12.467 0.453542L11.6419 2.22303C11.5234 2.47703 11.6299 2.76961 11.8839 2.88806L12.3013 3.08271L2.08532 24.991C1.96687 25.245 2.07336 25.5376 2.32737 25.6561L3.80673 26.3459L3.01529 28.0432C2.89684 28.2972 3.00333 28.5897 3.25734 28.7082L4.62776 29.3472C4.82729 29.4403 5.05926 29.3934 5.20739 29.242L6.6657 27.6791L11.4937 29.9304L16.3217 32.1817L16.0618 34.3034C16.0407 34.5149 16.1542 34.7221 16.3537 34.8151L17.7241 35.4542C17.969 35.5683 18.2707 35.4661 18.3892 35.2121L19.1806 33.5149L20.66 34.2047C20.914 34.3231 21.2066 34.2167 21.325 33.9627L31.5405 12.0556L31.9579 12.2502C32.2119 12.3687 32.5045 12.2622 32.6229 12.0082L33.4483 10.2381C33.5674 9.98433 33.4606 9.69086 33.2066 9.57241ZM14.8579 18.7831C14.7395 19.0371 14.4469 19.1436 14.1929 19.0251C13.9389 18.9067 13.8324 18.6141 13.9508 18.3601L14.8819 16.3635C14.996 16.1187 15.2929 16.003 15.5469 16.1215C15.8009 16.2399 15.9031 16.5417 15.7889 16.7865L14.8579 18.7831ZM12.3699 29.2354L11.4622 28.8121L21.4665 7.35797L22.3742 7.78123L12.3699 29.2354ZM18.7782 20.6111C18.6598 20.8651 18.358 20.9673 18.1132 20.8532C17.8592 20.7347 17.7527 20.4422 17.8711 20.1881L18.8021 18.1916C18.9163 17.9468 19.2132 17.8311 19.4672 17.9495C19.712 18.0637 19.8234 18.3697 19.7092 18.6146L18.7782 20.6111Z" fill="#FF6A3D"/>
</g>
<defs>
<clipPath id="clip0_4256_45">
<rect width="33.6602" height="36.9731" fill="white"/>
</clipPath>
</defs>
</svg>
