<svg width="43" height="43" viewBox="0 0 43 43" fill="none" xmlns="http://www.w3.org/2000/svg">
<g clip-path="url(#clip0_4256_51)">
<path d="M31.8219 10.6087C31.5511 10.338 31.1787 10.1624 30.7743 10.1558L11.7645 9.84298C11.3664 9.8365 11.0222 10.0973 10.8906 10.4215C10.7611 10.7437 10.8281 11.1754 11.115 11.4622L12.3832 12.7305L2.97373 22.1399C2.4112 22.7025 2.42647 23.6397 3.00762 24.2209L7.79388 29.0071C8.02719 29.2405 8.39582 29.2486 8.62165 29.0228L15.3366 22.3078L20.1122 27.0833L13.3972 33.7983C13.1714 34.0242 13.1806 34.3938 13.4128 34.6261L18.1969 39.4102C18.7781 39.9913 19.7207 40.0119 20.2832 39.4494L29.6927 30.0399L30.9641 31.3114C31.252 31.5993 31.6848 31.6653 32.0048 31.5357C32.327 31.4062 32.5867 31.063 32.5834 30.6618L32.2727 11.6542C32.2662 11.2499 32.0938 10.8807 31.8198 10.6067L31.8219 10.6087Z" fill="#FF6A3D"/>
</g>
<defs>
<clipPath id="clip0_4256_51">
<rect width="42.4264" height="42.4264" fill="white"/>
</clipPath>
</defs>
</svg>
