<svg width="40" height="40" viewBox="0 0 40 40" fill="none" xmlns="http://www.w3.org/2000/svg">
<g clip-path="url(#clip0_4224_20003)">
<path d="M20 40C31.0457 40 40 31.0457 40 20C40 8.95431 31.0457 0 20 0C8.95431 0 0 8.95431 0 20C0 31.0457 8.95431 40 20 40Z" fill="#10111E"/>
<path fill-rule="evenodd" clip-rule="evenodd" d="M9.05417 19.7889C14.8846 17.2487 18.7724 15.574 20.7177 14.7649C26.2719 12.4547 27.4261 12.0534 28.1783 12.0402C28.3437 12.0373 28.7137 12.0783 28.9533 12.2727C29.1556 12.4369 29.2113 12.6587 29.2379 12.8143C29.2646 12.97 29.2977 13.3246 29.2714 13.6017C28.9704 16.7641 27.668 24.4386 27.0055 27.9806C26.7251 29.4794 26.1731 29.9819 25.6387 30.0311C24.4772 30.138 23.5953 29.2636 22.4704 28.5262C20.7101 27.3723 19.7157 26.654 18.007 25.528C16.0324 24.2268 17.3125 23.5116 18.4378 22.3428C18.7323 22.0369 23.8496 17.3823 23.9487 16.9601C23.9611 16.9072 23.9726 16.7104 23.8556 16.6065C23.7387 16.5025 23.5661 16.5381 23.4415 16.5663C23.265 16.6064 20.4529 18.4651 15.0054 22.1423C14.2072 22.6904 13.4843 22.9574 12.8365 22.9434C12.1224 22.928 10.7487 22.5397 9.72758 22.2077C8.47508 21.8006 7.47961 21.5853 7.5663 20.8939C7.61145 20.5337 8.1074 20.1654 9.05417 19.7889Z" fill="white"/>
</g>
<defs>
<clipPath id="clip0_4224_20003">
<rect width="40" height="40" fill="white"/>
</clipPath>
</defs>
</svg>
