<svg width="40" height="38" viewBox="0 0 40 38" fill="none" xmlns="http://www.w3.org/2000/svg">
<g clip-path="url(#clip0_4256_39)">
<path d="M29.4374 34.4493C31.707 31.7146 32.1148 29.2892 30.6496 27.2375C28.8794 24.7586 28.808 24.2298 29.2737 23.0462C29.7233 21.9031 31.6036 15.8958 24.4299 9.87637C23.6273 9.20297 22.727 8.54374 21.7537 7.91629C14.3251 3.12762 3.48715 11.1642 3.02988 11.5085C2.8362 11.6543 2.71919 11.8794 2.7109 12.1212C2.70238 12.3639 2.80429 12.5965 2.98769 12.7548L4.84377 14.3603C4.8069 14.4004 4.77059 14.4411 4.73522 14.4833C3.49055 15.9666 3.68405 18.1783 5.16745 19.4231C6.65084 20.6678 8.86258 20.4743 10.1073 18.9909C10.1199 18.9759 10.1316 18.9602 10.1439 18.9449L21.2111 28.5179C20.0788 29.9981 20.3014 32.1221 21.7435 33.3321C23.1582 34.5192 25.2351 34.3972 26.5041 33.0964L28.2463 34.6033C28.2492 34.6057 28.2524 34.6085 28.2554 34.611C28.2564 34.6118 28.2577 34.6129 28.2583 34.6134C28.5977 34.8982 29.1027 34.8543 29.3874 34.515C29.4052 34.4936 29.4221 34.4716 29.4374 34.4493ZM6.32676 18.0414C5.60636 17.437 5.51202 16.3627 6.11655 15.6422C6.72109 14.9218 7.79545 14.8281 8.51585 15.4326C9.23625 16.0371 9.33055 17.1114 8.72601 17.8318C8.12148 18.5523 7.04711 18.6459 6.32676 18.0414ZM22.9028 31.9504C22.1824 31.3459 22.0881 30.2717 22.6926 29.5512C23.2972 28.8308 24.3715 28.737 25.0919 29.3416C25.8127 29.9463 25.9066 31.0204 25.3021 31.7408C24.6976 32.4613 23.6236 32.5552 22.9028 31.9504Z" fill="#FF6A3D"/>
</g>
<defs>
<clipPath id="clip0_4256_39">
<rect width="39.4712" height="37.5847" fill="white"/>
</clipPath>
</defs>
</svg>
