<svg width="30" height="26" viewBox="0 0 30 26" fill="none" xmlns="http://www.w3.org/2000/svg">
<g clip-path="url(#clip0_4256_33)">
<path d="M25.4194 8.53254L30 7.79077L28.5276 0.434367L20.6384 0C20.9035 1.68386 20.5001 3.3706 19.5045 4.75545C18.5004 6.15164 17.0083 7.07111 15.3075 7.34752C14.9606 7.40393 14.608 7.43214 14.2611 7.43214C11.0964 7.43214 8.43661 5.17005 7.92611 2.05051L0 5.06853L1.17899 10.5094L1.48643 12.4105L6.08959 11.6659C6.12062 11.6603 6.14883 11.6574 6.17985 11.6574C6.29831 11.6574 6.41396 11.6941 6.50986 11.7646C6.63114 11.8521 6.71294 11.9846 6.7355 12.1313L8.94401 25.7603L27.1733 22.8072L24.9507 9.17818C24.9027 8.87074 25.1119 8.58331 25.4194 8.53254Z" fill="#FF6A3D"/>
</g>
<defs>
<clipPath id="clip0_4256_33">
<rect width="30" height="25.7603" fill="white"/>
</clipPath>
</defs>
</svg>
