<svg width="40" height="40" viewBox="0 0 40 40" fill="none" xmlns="http://www.w3.org/2000/svg">
<g clip-path="url(#clip0_4224_20008)">
<mask id="mask0_4224_20008" style="mask-type:luminance" maskUnits="userSpaceOnUse" x="0" y="0" width="40" height="40">
<path d="M39.8607 0H0.0878906V39.7728H39.8607V0Z" fill="white"/>
</mask>
<g mask="url(#mask0_4224_20008)">
<path d="M19.8903 39.7657H20.0488C27.9457 39.7657 32.5294 38.9706 35.7763 35.8185C39.0868 32.4748 39.8513 27.8601 39.8513 19.9941V19.7716C39.8513 11.9079 39.0868 7.32414 35.7763 3.94722C32.5318 0.795124 27.915 0 20.0512 0H19.8926C11.9958 0 7.40965 0.795124 4.16291 3.94722C0.852252 7.29101 0.0878906 11.9079 0.0878906 19.7716V19.9941C0.0878906 27.8577 0.852252 32.4417 4.16291 35.8185C7.37891 38.9706 11.9958 39.7657 19.8903 39.7657Z" fill="#10111E"/>
<path d="M35.1175 19.5813C35.1175 19.4299 34.9944 19.3045 34.8429 19.2974C29.4079 19.0915 26.1002 18.3983 23.7861 16.0842C21.4672 13.7654 20.7763 10.4552 20.5705 5.00835C20.5657 4.85692 20.4403 4.73389 20.2865 4.73389H19.6524C19.501 4.73389 19.3755 4.85692 19.3685 5.00835C19.1626 10.4528 18.4717 13.7654 16.1529 16.0842C13.8365 18.4006 10.531 19.0915 5.09599 19.2974C4.94456 19.3021 4.82153 19.4275 4.82153 19.5813V20.2154C4.82153 20.3669 4.94456 20.4923 5.09599 20.4994C10.531 20.7052 13.8388 21.3985 16.1529 23.7126C18.467 26.0267 19.1579 29.3275 19.3661 34.7528C19.3708 34.9043 19.4962 35.0274 19.65 35.0274H20.2865C20.4379 35.0274 20.5634 34.9043 20.5705 34.7528C20.7787 29.3275 21.4696 26.0267 23.7837 23.7126C26.1002 21.3961 29.4055 20.7052 34.8405 20.4994C34.992 20.4946 35.1151 20.3692 35.1151 20.2154V19.5813H35.1175Z" fill="white"/>
</g>
</g>
<defs>
<clipPath id="clip0_4224_20008">
<rect width="40" height="40" fill="white"/>
</clipPath>
</defs>
</svg>
