<svg width="37" height="38" viewBox="0 0 37 38" fill="none" xmlns="http://www.w3.org/2000/svg">
<g clip-path="url(#clip0_4256_14)">
<path d="M8.83189 14.8934C8.83189 14.8934 5.724 14.0478 3.68283 15.1944C3.68283 15.1944 4.63024 12.671 8.31318 12.1777C8.58313 12.1411 8.82093 11.9802 8.95638 11.7435C9.09269 11.5078 9.11 11.2225 9.00584 10.9705C8.56953 9.95808 7.86378 9.08557 6.96549 8.4467C6.96549 8.4467 9.18705 6.58259 12.0051 8.76523L12.0041 8.76609C12.1317 8.87 12.2995 8.90858 12.4594 8.87284C12.6203 8.83625 12.755 8.72852 12.8254 8.57979C13.4548 7.23226 15.1207 4.24483 17.6099 4.05166C17.6099 4.05166 15.8965 7.91063 16.4151 8.52872C15.1386 9.43812 13.7961 10.4661 12.4163 11.6274C11.093 12.7431 9.91167 13.852 8.83189 14.8934Z" fill="#FF6A3D"/>
<path d="M8.9426 15.0254C8.89926 15.0618 8.84067 15.0758 8.78544 15.0624C8.76812 15.0417 5.72372 14.2467 3.77795 15.3395C3.7127 15.3749 3.63317 15.366 3.57816 15.3172C3.52298 15.2703 3.50479 15.1942 3.53164 15.1277C3.56784 15.0199 4.55888 12.5003 8.29666 12.0033L8.2958 12.0022C8.51455 11.9716 8.70554 11.843 8.81494 11.6528C8.92535 11.4617 8.93975 11.2315 8.85714 11.0283C8.43057 10.0464 7.74355 9.20037 6.87034 8.58092C6.82816 8.5495 6.80178 8.5013 6.7997 8.44853C6.79763 8.39577 6.81935 8.34413 6.85959 8.31036C6.88642 8.28785 9.21074 6.36389 12.1137 8.62269C12.2058 8.69481 12.326 8.72062 12.4383 8.69316C12.5419 8.6678 12.6275 8.59594 12.6705 8.49835C13.29 7.17676 15.0088 4.07458 17.5984 3.87281C17.6591 3.8676 17.7168 3.89656 17.7506 3.94732C17.7864 3.99635 17.7934 4.0591 17.7703 4.1154C16.9403 5.97408 16.2509 8.08231 16.5392 8.42589C16.5704 8.46304 16.5844 8.51111 16.5792 8.55942C16.5731 8.60669 16.5474 8.64938 16.5077 8.67745C15.1452 9.6501 13.8089 10.6853 12.5191 11.7675C11.2912 12.7978 10.091 13.8947 8.94741 15.0213L8.9426 15.0254ZM4.09368 14.8038C5.93742 14.0674 8.27478 14.573 8.78583 14.6981C9.91207 13.5948 11.0963 12.5167 12.304 11.498C13.5107 10.4802 14.8636 9.43117 16.1958 8.47506C15.9457 7.6405 16.927 5.20994 17.3419 4.24994C15.0922 4.64304 13.5592 7.42396 12.9916 8.64225L12.9914 8.64414C12.9048 8.83639 12.7335 8.98011 12.5292 9.03203C12.3134 9.08295 12.0865 9.0325 11.9141 8.89409C9.64228 7.13595 7.81766 8.06912 7.25046 8.43252C8.0846 9.07247 8.74229 9.91495 9.16069 10.8809C9.29383 11.1841 9.27673 11.5326 9.11472 11.8215C8.95272 12.1104 8.66314 12.3059 8.3344 12.3479C5.74982 12.6897 4.54873 14.0844 4.09368 14.8038Z" fill="#FF6A3D"/>
<path d="M18.9202 9.13794C17.4141 9.70891 15.8005 10.9503 14.7065 11.8947C13.835 12.6436 12.9476 13.3882 12.0444 14.1285C10.9356 15.0325 9.43181 16.4069 8.60804 17.7909C7.20435 20.175 7.78261 22.5805 9.71561 24.846C9.71561 24.846 14.0446 30.0052 22.8539 30.4452C24.072 30.4992 25.2909 30.3697 26.4692 30.0597C27.1003 29.8941 27.6235 29.4551 27.8962 28.8623C28.4129 27.7535 28.7592 26.5715 28.9217 25.3591C30.0214 16.6048 25.689 11.448 25.689 11.448C23.7907 9.14798 21.5221 8.16109 18.9202 9.13794ZM12.6332 23.5057C12.1474 23.4632 11.8277 22.6149 11.9157 21.6092C12.0036 20.6034 12.4587 19.8171 12.9445 19.8596C13.4303 19.9021 13.7479 20.7522 13.6465 21.7692C13.5461 22.7853 13.1141 23.5487 12.6332 23.5057ZM19.2657 25.22C19.1808 26.2231 18.7156 27.0056 18.2328 26.9605C17.7501 26.9154 17.4299 26.0728 17.5179 25.067C17.6059 24.0613 18.0681 23.2814 18.5539 23.3239C19.0378 23.3662 19.3537 24.2142 19.2657 25.22ZM15.2119 16.0177C15.2999 15.0119 15.7621 14.232 16.2318 14.2616C16.7015 14.2912 17.0373 15.1524 16.9493 16.1582C16.8613 17.1639 16.3992 17.9438 15.9134 17.9013C15.4277 17.8569 15.1137 17.0091 15.2017 16.0034L15.2119 16.0177ZM25.296 26.1242C25.224 27.1113 24.7553 27.9002 24.2695 27.8577C23.7837 27.8152 23.4661 26.9652 23.5567 25.9625C23.6483 24.959 24.1099 24.1743 24.594 24.2147C25.0772 24.2541 25.3943 25.1098 25.296 26.1242ZM21.3368 20.048C21.2583 21.0441 20.791 21.8283 20.3052 21.7858C19.8194 21.7433 19.5069 20.8889 19.6031 19.8762C19.6994 18.8635 20.1559 18.0937 20.636 18.1357C21.118 18.1778 21.4369 19.0356 21.3463 20.0383L21.3368 20.048ZM26.4899 19.4728C26.3993 20.4755 25.9371 21.2554 25.4539 21.216C24.9707 21.1766 24.6505 20.3234 24.7364 19.3194C24.8213 18.3163 25.2912 17.5351 25.7744 17.5745C26.2576 17.614 26.5851 18.461 26.5002 19.4642L26.4899 19.4728ZM22.6977 13.7737C22.6097 14.7794 22.1475 15.5593 21.6648 15.5142C21.1821 15.4691 20.8619 14.6265 20.9499 13.6208C21.0379 12.615 21.5001 11.8351 21.9698 11.8647C22.4386 11.8933 22.796 12.7593 22.708 13.765L22.6977 13.7737Z" fill="#FF6A3D"/>
<path d="M27.6622 30.017C27.3568 30.2733 26.9984 30.458 26.6112 30.5561C25.3781 30.8804 24.1051 31.0166 22.8318 30.9597C13.9029 30.5112 9.50711 25.3959 9.32957 25.1843C7.12918 22.6102 6.74027 19.9527 8.18127 17.5232C9.04212 16.0764 10.5906 14.6593 11.7427 13.7207L14.3842 11.5043C15.5041 10.5381 17.1678 9.25817 18.7473 8.65727C21.3984 7.65299 23.9397 8.5045 26.097 11.1237C26.2762 11.3373 30.5596 16.5489 29.44 25.4238C29.2753 26.6838 28.9213 27.9111 28.3892 29.0644C28.2221 29.4332 27.9726 29.7583 27.6622 30.017ZM12.0967 14.7546C11.0556 15.6282 9.78773 16.831 9.06006 18.0446C7.8408 20.0911 8.1962 22.2686 10.11 24.5117C10.1542 24.5643 14.4186 29.5124 22.8799 29.9293C24.0448 29.9805 25.2105 29.8569 26.3388 29.5607C26.8256 29.4389 27.2301 29.0995 27.4346 28.6413C27.9253 27.5789 28.2525 26.4497 28.4038 25.2889C29.4572 16.8882 25.3301 11.8248 25.2886 11.7754C23.4119 9.50112 21.3292 8.77292 19.101 9.62122C17.668 10.1661 16.1097 11.3663 15.0393 12.2909L12.3658 14.5342L12.0967 14.7546ZM25 28.1101C24.7884 28.3 24.5085 28.396 24.2256 28.3731C23.419 28.3025 22.9223 27.2705 23.056 25.9064C23.1897 24.5423 23.8409 23.623 24.6361 23.6802C25.4314 23.7373 25.942 24.7859 25.8238 26.137L25.8229 26.136C25.7879 26.6559 25.6384 27.1629 25.3852 27.6198C25.2869 27.8043 25.1556 27.9707 25 28.1101ZM24.3186 27.3315C24.6228 26.9795 24.7931 26.5307 24.7965 26.0653C24.8738 25.6084 24.7866 25.1399 24.5509 24.7417C24.2441 25.0906 24.0768 25.5387 24.0773 26.0024C24.0136 26.7416 24.204 27.2201 24.3186 27.3315ZM26.1909 21.4613C25.9802 21.6503 25.7015 21.7435 25.4195 21.7217C25.1614 21.6991 24.6906 21.5509 24.4081 20.8014C24.0807 19.8014 24.176 18.7122 24.6721 17.7842C25.0804 17.0952 25.5698 17.0309 25.8279 17.0535C26.086 17.0761 26.5568 17.2244 26.8392 17.9738C27.0073 18.4675 27.0677 18.99 27.0147 19.5093C26.9759 20.0289 26.8265 20.5341 26.5752 20.9911C26.4737 21.1677 26.3441 21.3274 26.1909 21.4613ZM25.527 20.668L25.5259 20.6688C25.8166 20.3195 25.9774 19.8803 25.977 19.4252C26.056 18.9703 25.968 18.5009 25.7283 18.1041C25.6066 18.2063 25.3207 18.622 25.254 19.362C25.1788 19.8172 25.2699 20.2841 25.5099 20.677L25.527 20.668ZM18.9616 27.2126C18.751 27.4016 18.4711 27.4976 18.1881 27.4748C17.3665 27.4029 16.884 26.3711 16.9951 25.0136C17.1073 23.6553 17.7818 22.7324 18.5784 22.7849C19.375 22.8373 19.8842 23.8906 19.764 25.2434C19.758 25.9781 19.4717 26.6826 18.9616 27.2126ZM18.2781 26.4357C18.3998 26.3336 18.6878 25.9161 18.7498 25.1748C18.8118 24.4335 18.6261 23.9545 18.5042 23.8511C18.3855 23.9507 18.0965 24.369 18.0325 25.112L18.0316 25.111C17.9525 25.5678 18.0405 26.0373 18.2781 26.4357ZM21.0379 22.0363C20.8264 22.2243 20.5475 22.3195 20.2656 22.2957C20.0076 22.2732 19.5367 22.1249 19.2543 21.3755C18.9277 20.3765 19.0222 19.2862 19.5191 18.3592C19.9274 17.6702 20.4168 17.606 20.6749 17.6286C20.933 17.6511 21.4038 17.7994 21.6863 18.5488L21.6854 18.5478C21.8535 19.0415 21.9138 19.5659 21.8617 20.0844C21.8229 20.604 21.6727 21.1081 21.4214 21.5651C21.3208 21.7427 21.1903 21.9015 21.0379 22.0363ZM20.373 21.2439C20.6693 20.895 20.8323 20.4523 20.8323 19.9933C20.9104 19.5374 20.8224 19.0679 20.5836 18.6722C20.4609 18.7523 20.1777 19.1922 20.1049 19.9373C20.032 20.6825 20.244 21.1446 20.357 21.252L20.373 21.2439ZM13.3601 23.7559C13.1503 23.946 12.8713 24.043 12.5884 24.0201C11.7818 23.9496 11.2851 22.9175 11.4007 21.5633C11.5172 20.2101 12.1873 19.282 12.9969 19.35C13.8066 19.418 14.3002 20.4526 14.1825 21.8086L14.1824 21.8105C14.1645 22.5393 13.8703 23.2345 13.3601 23.7559ZM12.6766 22.979C12.9824 22.631 13.1506 22.1839 13.1519 21.7203C13.217 20.9765 13.0153 20.4846 12.9063 20.3966C12.7716 20.4833 12.4986 20.9146 12.432 21.6545L12.431 21.6553C12.3529 22.1112 12.4409 22.5807 12.6766 22.979ZM22.4035 15.7578C22.1927 15.9488 21.9118 16.0456 21.627 16.0226C21.3746 16.0005 20.9011 15.8492 20.6173 15.1044C20.4473 14.6105 20.3881 14.0852 20.444 13.5671C20.5604 12.2139 21.2306 11.2859 22.0241 11.3409C22.8177 11.396 23.3331 12.444 23.2118 13.7978L23.2128 13.7969C23.2022 14.5303 22.9133 15.2316 22.4035 15.7578ZM21.72 14.981C22.0241 14.6309 22.1923 14.1838 22.1936 13.7202C22.2728 13.2634 22.1858 12.7931 21.9461 12.3964C21.8114 12.483 21.5364 12.916 21.4744 13.6573C21.3944 14.113 21.4814 14.5834 21.72 14.981ZM16.6441 18.1517C16.4324 18.3416 16.1516 18.4366 15.8687 18.4137C15.0648 18.3463 14.5655 17.3111 14.6992 15.947C14.8328 14.5829 15.4858 13.6657 16.2906 13.7342C17.0945 13.8017 17.5964 14.84 17.4782 16.1911C17.4432 16.711 17.2937 17.218 17.0405 17.6749C16.9368 17.8551 16.8021 18.0174 16.6441 18.1517ZM15.9791 17.3593C16.2765 17.0095 16.4405 16.5659 16.4405 16.107C16.5187 15.6511 16.4307 15.1816 16.195 14.7833C15.89 15.1324 15.7217 15.5814 15.7214 16.0441C15.6568 16.7823 15.8481 17.2618 15.9627 17.3731L15.9791 17.3593Z" fill="#FF6A3D"/>
</g>
<defs>
<clipPath id="clip0_4256_14">
<rect width="36.0475" height="37.048" fill="white"/>
</clipPath>
</defs>
</svg>
