<svg width="40" height="40" viewBox="0 0 40 40" fill="none" xmlns="http://www.w3.org/2000/svg">
<path d="M7.5 7.5H32.5V32.5H7.5V7.5Z" fill="white"/>
<path fill-rule="evenodd" clip-rule="evenodd" d="M2.81178 2.81178C0 5.62356 0 10.149 0 19.2V20.8C0 29.851 0 34.3764 2.81178 37.1882C5.62356 40 10.149 40 19.2 40H20.8C29.851 40 34.3764 40 37.1882 37.1882C40 34.3764 40 29.851 40 20.8V19.2C40 10.149 40 5.62356 37.1882 2.81178C34.3764 0 29.851 0 20.8 0H19.2C10.149 0 5.62356 0 2.81178 2.81178ZM6.75008 12.1668C6.96672 22.5668 12.1667 28.8167 21.2834 28.8167H21.8001V22.8667C25.1501 23.2 27.6833 25.6501 28.6999 28.8167H33.4334C32.1334 24.0834 28.7166 21.4667 26.5832 20.4667C28.7166 19.2334 31.7166 16.2334 32.4332 12.1668H28.1331C27.1998 15.4668 24.4334 18.4667 21.8001 18.75V12.1668H17.5V23.7C14.8333 23.0334 11.4667 19.8001 11.3167 12.1668H6.75008Z" fill="#10111E"/>
</svg>
